<?xml version="1.0" standalone="no"?>
<!DOCTYPE svg PUBLIC "-//W3C//DTD SVG 20010904//EN"
 "http://www.w3.org/TR/2001/REC-SVG-20010904/DTD/svg10.dtd">
<svg version="1.0" xmlns="http://www.w3.org/2000/svg"
 width="1032.000000pt" height="1032.000000pt" viewBox="0 0 1032.000000 1032.000000"
 preserveAspectRatio="xMidYMid meet">
<metadata>
Created by potrace 1.11, written by Peter Selinger 2001-2013
</metadata>
<g transform="translate(0.000000,1032.000000) scale(0.100000,-0.100000)"
fill="#000000" stroke="none">
<path d="M3558 9294 c-2 -2 -51 -6 -108 -9 -123 -6 -254 -18 -350 -30 -14 -2
-52 -6 -85 -10 -33 -3 -67 -8 -75 -10 -8 -3 -33 -7 -55 -10 -48 -7 -130 -22
-165 -30 -14 -3 -36 -8 -50 -10 -153 -23 -530 -146 -700 -228 -110 -54 -301
-169 -356 -215 -11 -9 -40 -33 -65 -52 -136 -108 -390 -391 -446 -497 -9 -18
-20 -33 -25 -33 -4 0 -8 -5 -8 -10 0 -6 -17 -38 -38 -73 -72 -120 -189 -404
-217 -527 -6 -25 -36 -164 -40 -184 -2 -10 -7 -39 -10 -65 -4 -25 -9 -57 -11
-71 -24 -153 -23 -594 1 -720 3 -14 8 -45 11 -70 10 -69 10 -73 17 -105 4 -16
10 -40 12 -52 11 -51 14 -63 35 -134 12 -41 33 -105 47 -144 14 -38 27 -80 30
-92 3 -13 9 -23 14 -23 5 0 9 -5 9 -12 0 -11 88 -195 112 -233 71 -111 141
-216 153 -229 8 -8 15 -19 15 -24 0 -6 3 -12 8 -14 4 -1 25 -25 47 -53 55 -69
263 -275 319 -315 25 -18 46 -37 46 -42 0 -5 4 -7 9 -4 5 4 11 2 13 -3 3 -9
161 -117 223 -151 62 -35 213 -110 222 -110 4 0 21 -7 38 -16 29 -15 198 -74
222 -78 7 -1 16 -5 19 -9 4 -4 18 -7 30 -7 13 0 26 -5 29 -10 4 -6 10 -8 14
-5 5 2 23 0 42 -6 19 -5 42 -12 53 -14 10 -3 20 -6 22 -8 3 -3 -99 -147 -139
-197 -13 -16 -102 -140 -127 -176 -19 -29 -256 -352 -278 -381 -9 -12 -24 -31
-32 -43 -32 -48 -134 -185 -141 -190 -3 -3 -8 -10 -10 -16 -2 -6 -14 -24 -27
-40 -73 -94 -152 -205 -152 -213 0 -5 -3 -11 -8 -13 -4 -1 -40 -48 -80 -103
-39 -55 -78 -107 -85 -115 -8 -8 -29 -37 -47 -65 -19 -27 -40 -56 -47 -65 -6
-8 -41 -55 -77 -105 -69 -96 -126 -174 -139 -190 -8 -10 -205 -281 -235 -324
-9 -13 -23 -29 -29 -36 -7 -8 -13 -18 -13 -24 0 -6 -3 -11 -7 -11 -5 0 -15
-12 -25 -28 -13 -22 -201 -280 -250 -344 -7 -9 -20 -26 -28 -39 -8 -12 -25
-34 -37 -49 -13 -15 -23 -33 -23 -39 0 -6 -3 -11 -7 -11 -5 0 -21 -20 -38 -45
-16 -24 -33 -45 -37 -45 -5 0 -8 -7 -8 -15 0 -9 -7 -18 -15 -21 -8 -4 -15 -11
-15 -16 0 -6 -10 -23 -22 -38 -13 -15 -30 -37 -38 -49 -8 -13 -62 -87 -119
-164 -58 -78 -133 -181 -168 -229 l-63 -88 770 0 c423 0 770 4 770 8 0 5 8 17
17 28 10 11 36 46 58 79 22 33 42 62 45 65 3 3 13 16 22 30 10 14 31 44 48 68
16 23 30 46 30 51 0 5 7 15 16 22 9 8 28 31 42 53 13 22 29 44 34 50 5 6 49
70 99 141 49 72 95 137 102 145 7 9 26 36 42 60 17 25 36 51 42 58 7 7 13 17
13 21 0 4 8 17 18 29 9 11 25 29 34 40 9 11 14 23 11 26 -4 3 -1 6 5 6 7 0 12
6 12 14 0 8 4 16 8 18 5 2 35 41 67 88 32 47 81 115 107 153 26 37 48 71 48
76 0 5 4 11 8 13 5 2 38 46 75 98 36 52 74 104 83 115 9 11 21 30 27 43 5 12
14 22 19 22 4 0 8 7 8 15 0 8 5 15 10 15 6 0 10 5 10 11 0 6 6 17 13 24 15 17
29 36 42 57 6 9 39 57 75 108 36 50 70 99 75 108 6 9 18 25 28 36 9 11 17 23
17 27 0 4 6 14 13 21 6 7 32 42 55 77 61 90 86 125 93 131 3 3 14 20 24 38 11
17 23 32 27 32 4 0 8 7 8 15 0 9 7 18 15 21 8 3 17 14 20 25 4 10 12 25 18 32
7 7 37 48 66 92 30 44 59 82 63 83 4 2 8 8 8 13 0 6 5 15 10 22 11 13 161 226
230 327 25 36 48 67 51 70 3 3 14 20 24 38 11 17 23 32 27 32 4 0 8 5 8 11 0
6 10 24 23 39 12 15 47 64 77 109 30 44 58 80 63 81 4 0 7 6 7 13 0 8 8 21 18
30 15 14 40 17 128 17 l109 0 0 -1695 0 -1695 627 0 627 0 0 1653 c0 908 0
1679 1 1713 l0 61 127 126 c118 119 143 139 143 119 0 -5 20 -30 45 -58 24
-27 44 -52 45 -56 0 -4 10 -18 23 -31 12 -12 65 -76 117 -141 52 -65 100 -124
105 -130 6 -6 41 -49 78 -96 37 -47 76 -94 85 -105 10 -11 65 -78 122 -150 57
-71 106 -132 109 -135 4 -3 33 -39 66 -80 32 -41 62 -77 65 -80 4 -3 33 -39
66 -80 73 -92 90 -113 132 -160 17 -21 32 -40 32 -44 0 -4 10 -17 23 -30 12
-13 29 -32 37 -42 46 -58 188 -234 214 -265 34 -40 45 -53 96 -119 19 -25 40
-49 46 -55 5 -5 37 -44 69 -85 33 -41 73 -91 90 -111 16 -20 37 -44 45 -55 65
-81 188 -233 203 -249 10 -11 37 -45 60 -75 22 -30 46 -59 51 -65 6 -5 47 -55
91 -110 44 -55 82 -102 85 -105 3 -3 41 -50 85 -105 44 -55 86 -106 93 -113 7
-8 25 -30 40 -50 15 -21 34 -44 42 -52 9 -8 31 -35 50 -60 19 -25 37 -47 40
-50 3 -3 50 -61 105 -130 55 -69 102 -127 105 -130 3 -3 35 -41 70 -85 36 -44
68 -81 72 -83 5 -2 8 -10 8 -18 0 -8 4 -14 10 -14 5 0 20 -16 32 -35 l23 -35
843 0 c737 0 842 2 830 15 -7 7 -23 27 -36 42 -12 15 -39 48 -60 72 -55 65
-65 76 -92 111 -14 17 -34 42 -45 54 -27 31 -52 61 -100 121 -22 27 -47 57
-55 66 -8 9 -31 35 -50 59 -19 23 -39 47 -45 54 -5 6 -44 52 -85 101 -41 50
-79 95 -85 101 -5 7 -24 29 -42 50 -31 39 -63 78 -84 102 -6 7 -33 41 -61 75
-28 34 -59 69 -67 78 -9 8 -25 28 -36 43 -11 15 -29 38 -40 50 -11 12 -38 44
-60 71 -22 27 -50 60 -62 72 -12 13 -20 23 -17 23 3 0 -5 11 -18 24 -13 13
-37 41 -55 62 -17 22 -39 49 -50 61 -10 11 -34 40 -52 63 -19 24 -40 48 -46
54 -5 6 -30 36 -55 66 -25 30 -54 66 -65 79 -11 13 -28 33 -37 43 -10 10 -18
20 -18 23 0 2 -10 15 -22 28 -13 13 -39 43 -57 66 -19 24 -40 49 -46 55 -5 6
-30 36 -55 66 -25 30 -55 66 -66 80 -12 14 -63 75 -113 135 -51 61 -108 130
-129 154 -20 24 -43 53 -50 63 -8 10 -25 31 -39 46 -14 15 -53 61 -86 102 -34
41 -69 82 -77 90 -9 8 -21 22 -26 31 -5 9 -30 41 -55 70 -40 46 -258 307 -362
433 -18 21 -44 53 -59 70 -14 17 -68 81 -118 141 -50 61 -99 119 -108 130 -10
11 -44 53 -77 93 -32 39 -62 72 -66 72 -4 0 -10 8 -13 18 -3 9 -18 30 -33 47
-28 30 -65 72 -132 154 -20 25 -44 53 -53 63 -10 10 -18 20 -18 23 0 3 -8 13
-17 23 -10 10 -34 37 -53 61 -19 24 -44 53 -55 65 -11 11 -47 55 -80 96 -33
41 -66 82 -75 90 -8 9 -28 33 -45 54 -16 21 -38 47 -47 58 -16 19 15 52 1020
1054 570 569 1039 1034 1042 1034 3 1 19 19 35 40 17 21 36 39 43 40 6 0 12 4
12 9 0 5 6 16 14 23 66 63 1566 1561 1566 1564 0 2 -375 4 -832 4 l-833 0
-218 -222 c-120 -123 -366 -373 -545 -557 -180 -183 -392 -400 -472 -481 -80
-81 -284 -290 -455 -465 -170 -174 -398 -406 -505 -515 -192 -196 -623 -636
-899 -919 l-141 -143 0 43 c-1 24 -1 768 -1 1652 l0 1608 -914 -2 c-503 -1
-916 -3 -917 -5z m573 -1178 c1 -6 2 -597 3 -1314 l1 -1302 -30 -1 c-308 -8
-767 10 -905 36 -14 3 -42 8 -64 10 -21 3 -46 10 -56 15 -9 5 -20 7 -23 4 -7
-8 -218 49 -282 76 -11 4 -47 19 -80 32 -62 24 -228 111 -245 128 -3 3 -30 24
-61 47 -48 37 -165 154 -194 195 -103 143 -155 256 -194 419 -19 81 -25 111
-36 193 -3 21 -8 42 -11 47 -3 5 -1 9 4 9 5 0 6 16 3 38 -11 58 -2 267 14 367
24 144 109 370 167 440 5 5 21 27 38 48 71 93 158 173 260 239 67 43 142 83
153 80 4 -1 7 2 7 7 0 8 19 16 56 26 6 2 27 10 45 18 62 28 250 81 324 92 22
4 48 8 57 11 23 7 49 11 123 19 33 4 71 9 85 11 14 1 72 6 130 9 58 4 106 8
107 8 1 1 137 2 302 3 207 0 301 -3 302 -10z"/>
</g>
</svg>
