<?xml version="1.0" encoding="UTF-8"?>
<svg width="258px" height="207px" viewBox="0 0 258 207" version="1.1" xmlns="http://www.w3.org/2000/svg" xmlns:xlink="http://www.w3.org/1999/xlink">
    <!-- Generator: Sketch 53.1 (72631) - https://sketchapp.com -->
    <title>KR-Logo-redesign</title>
    <desc>Created with Sketch.</desc>
    <g id="Color" stroke="none" stroke-width="1" fill="none" fill-rule="evenodd">
        <g id="Final" fill="#333333">
            <path d="M134.719875,121.330959 L134.719875,207 L103.361502,207 L103.361502,122.26943 L97.7089202,122.26943 L38.3568075,207 L0,207 L64.3317684,118.783679 C50.5142762,115.834182 39.3886702,109.086193 30.9546166,98.5395078 C22.5205629,87.9928229 18.3035994,75.3906173 18.3035994,60.732513 C18.3035994,41.9629891 25.0327966,26.8582178 38.4913928,15.4177461 C50.6938534,5.13919731 70.5225544,0 97.9780908,0 L134.719875,0 L134.719875,82.5854922 L215.605634,0 L257.461659,0 L163.521127,93.7130829 L258,207 L216.00939,207 L141.179969,114.895725 L134.719875,121.330959 Z M103.361502,29.3607513 L92.1909233,29.3607513 C63.2998034,29.3607513 48.8544601,39.9519666 48.8544601,61.134715 C48.8544601,83.7475224 63.7035552,95.0537565 93.4021909,95.0537565 L103.361502,95.0537565 L103.361502,29.3607513 Z" id="Combined-Shape"></path>
        </g>
    </g>
</svg>